# xmcd
# 
# Track frame offsets:
#     150
#     15742
#     33240
#     45315
# 
# Disc length: 741
# 
# Revision: 2
# Processed by: cddbd v1.5.2PL0 Copyright (c) Steve Scherf et al.
# Submitted via: fre:ac v1.0.17
# 
DISCID=2202e304
DTITLE=Merril Bainbridge - Mouth
DYEAR=1995
DGENRE=Pop
TTITLE0=Mouth
TTITLE1=Being Boring
TTITLE2=Song For Neen
TTITLE3=Mouth [Off The Track Mix]
EXTD=
EXTT0=
EXTT1=
EXTT2=
EXTT3=
PLAYORDER=
